<mxfile host="app.diagrams.net" modified="2023-05-15T16:58:47.626Z" agent="Mozilla/5.0 (Windows NT 10.0; Win64; x64) AppleWebKit/537.36 (KHTML, like Gecko) Chrome/113.0.0.0 Safari/537.36" etag="Ex3-83XOIKqWZlhKMElH" version="21.3.2" type="device">
  <diagram name="P치gina-1" id="5AUVLAZYxCnt0QFyrIkY">
    <mxGraphModel dx="1843" dy="773" grid="1" gridSize="10" guides="1" tooltips="1" connect="1" arrows="1" fold="1" page="1" pageScale="1" pageWidth="827" pageHeight="1169" math="0" shadow="0">
      <root>
        <mxCell id="0" />
        <mxCell id="1" parent="0" />
        <mxCell id="yRoRjuL11nitNJYhxqnK-1" value="" style="ellipse;html=1;shape=startState;fillColor=#000000;strokeColor=#ff0000;" vertex="1" parent="1">
          <mxGeometry x="384" y="20" width="30" height="30" as="geometry" />
        </mxCell>
        <mxCell id="yRoRjuL11nitNJYhxqnK-2" value="" style="edgeStyle=orthogonalEdgeStyle;html=1;verticalAlign=bottom;endArrow=open;endSize=8;strokeColor=#ff0000;rounded=0;entryX=0.5;entryY=0;entryDx=0;entryDy=0;" edge="1" source="yRoRjuL11nitNJYhxqnK-1" parent="1" target="yRoRjuL11nitNJYhxqnK-3">
          <mxGeometry relative="1" as="geometry">
            <mxPoint x="399" y="110" as="targetPoint" />
          </mxGeometry>
        </mxCell>
        <mxCell id="yRoRjuL11nitNJYhxqnK-3" value="Inicio sesi칩n" style="rounded=1;whiteSpace=wrap;html=1;arcSize=40;fontColor=#000000;fillColor=#ffffc0;strokeColor=#ff0000;" vertex="1" parent="1">
          <mxGeometry x="339" y="115" width="120" height="40" as="geometry" />
        </mxCell>
        <mxCell id="yRoRjuL11nitNJYhxqnK-4" value="" style="edgeStyle=orthogonalEdgeStyle;html=1;verticalAlign=bottom;endArrow=open;endSize=8;strokeColor=#ff0000;rounded=0;entryX=0.5;entryY=0;entryDx=0;entryDy=0;" edge="1" source="yRoRjuL11nitNJYhxqnK-3" parent="1" target="yRoRjuL11nitNJYhxqnK-5">
          <mxGeometry relative="1" as="geometry">
            <mxPoint x="399" y="220" as="targetPoint" />
          </mxGeometry>
        </mxCell>
        <mxCell id="yRoRjuL11nitNJYhxqnK-5" value="Existe la &lt;br&gt;cuenta?" style="rhombus;whiteSpace=wrap;html=1;fontColor=#000000;fillColor=#ffffc0;strokeColor=#ff0000;" vertex="1" parent="1">
          <mxGeometry x="349" y="200" width="101" height="70" as="geometry" />
        </mxCell>
        <mxCell id="yRoRjuL11nitNJYhxqnK-6" value="no" style="edgeStyle=orthogonalEdgeStyle;html=1;align=left;verticalAlign=bottom;endArrow=open;endSize=8;strokeColor=#ff0000;rounded=0;entryX=0;entryY=0.5;entryDx=0;entryDy=0;" edge="1" source="yRoRjuL11nitNJYhxqnK-5" parent="1" target="yRoRjuL11nitNJYhxqnK-12">
          <mxGeometry x="-1" relative="1" as="geometry">
            <mxPoint x="500" y="250" as="targetPoint" />
          </mxGeometry>
        </mxCell>
        <mxCell id="yRoRjuL11nitNJYhxqnK-7" value="yes" style="edgeStyle=orthogonalEdgeStyle;html=1;align=left;verticalAlign=top;endArrow=open;endSize=8;strokeColor=#ff0000;rounded=0;exitX=0;exitY=0.5;exitDx=0;exitDy=0;entryX=0.5;entryY=0;entryDx=0;entryDy=0;" edge="1" source="yRoRjuL11nitNJYhxqnK-5" parent="1" target="yRoRjuL11nitNJYhxqnK-16">
          <mxGeometry x="-0.8" y="-27" relative="1" as="geometry">
            <mxPoint x="360" y="330" as="targetPoint" />
            <Array as="points">
              <mxPoint x="339" y="235" />
            </Array>
            <mxPoint x="18" y="-25" as="offset" />
          </mxGeometry>
        </mxCell>
        <mxCell id="yRoRjuL11nitNJYhxqnK-12" value="Crear cuenta" style="rounded=1;whiteSpace=wrap;html=1;arcSize=40;fontColor=#000000;fillColor=#ffffc0;strokeColor=#ff0000;" vertex="1" parent="1">
          <mxGeometry x="510" y="215" width="120" height="40" as="geometry" />
        </mxCell>
        <mxCell id="yRoRjuL11nitNJYhxqnK-13" value="" style="edgeStyle=orthogonalEdgeStyle;html=1;verticalAlign=bottom;endArrow=open;endSize=8;strokeColor=#ff0000;rounded=0;entryX=0.5;entryY=1;entryDx=0;entryDy=0;exitX=0.5;exitY=0;exitDx=0;exitDy=0;" edge="1" source="yRoRjuL11nitNJYhxqnK-12" parent="1" target="yRoRjuL11nitNJYhxqnK-45">
          <mxGeometry relative="1" as="geometry">
            <mxPoint x="560" y="170" as="targetPoint" />
            <mxPoint x="570" y="210" as="sourcePoint" />
            <Array as="points">
              <mxPoint x="569" y="215" />
            </Array>
          </mxGeometry>
        </mxCell>
        <mxCell id="yRoRjuL11nitNJYhxqnK-16" value="Comprobaci칩n de&amp;nbsp;&lt;br&gt;credenciales" style="rounded=1;whiteSpace=wrap;html=1;arcSize=40;fontColor=#000000;fillColor=#ffffc0;strokeColor=#ff0000;" vertex="1" parent="1">
          <mxGeometry x="279" y="325" width="120" height="40" as="geometry" />
        </mxCell>
        <mxCell id="yRoRjuL11nitNJYhxqnK-17" value="" style="edgeStyle=orthogonalEdgeStyle;html=1;verticalAlign=bottom;endArrow=open;endSize=8;strokeColor=#ff0000;rounded=0;entryX=0.5;entryY=0;entryDx=0;entryDy=0;" edge="1" source="yRoRjuL11nitNJYhxqnK-16" parent="1" target="yRoRjuL11nitNJYhxqnK-18">
          <mxGeometry relative="1" as="geometry">
            <mxPoint x="354" y="430" as="targetPoint" />
          </mxGeometry>
        </mxCell>
        <mxCell id="yRoRjuL11nitNJYhxqnK-18" value="Credenciales correctas?" style="rhombus;whiteSpace=wrap;html=1;fontColor=#000000;fillColor=#ffffc0;strokeColor=#ff0000;" vertex="1" parent="1">
          <mxGeometry x="289" y="405" width="101" height="85" as="geometry" />
        </mxCell>
        <mxCell id="yRoRjuL11nitNJYhxqnK-19" value="no" style="edgeStyle=orthogonalEdgeStyle;html=1;align=left;verticalAlign=bottom;endArrow=open;endSize=8;strokeColor=#ff0000;rounded=0;entryX=0;entryY=0.5;entryDx=0;entryDy=0;" edge="1" source="yRoRjuL11nitNJYhxqnK-18" parent="1" target="yRoRjuL11nitNJYhxqnK-3">
          <mxGeometry x="-0.9209" relative="1" as="geometry">
            <mxPoint x="489" y="480" as="targetPoint" />
            <Array as="points">
              <mxPoint x="230" y="448" />
              <mxPoint x="230" y="135" />
            </Array>
            <mxPoint as="offset" />
          </mxGeometry>
        </mxCell>
        <mxCell id="yRoRjuL11nitNJYhxqnK-20" value="yes" style="edgeStyle=orthogonalEdgeStyle;html=1;align=left;verticalAlign=top;endArrow=open;endSize=8;strokeColor=#ff0000;rounded=0;entryX=0.5;entryY=0;entryDx=0;entryDy=0;" edge="1" source="yRoRjuL11nitNJYhxqnK-18" parent="1" target="yRoRjuL11nitNJYhxqnK-21">
          <mxGeometry x="-1" relative="1" as="geometry">
            <mxPoint x="349" y="560" as="targetPoint" />
          </mxGeometry>
        </mxCell>
        <mxCell id="yRoRjuL11nitNJYhxqnK-21" value="Inicio aplicaci칩n" style="rounded=1;whiteSpace=wrap;html=1;arcSize=40;fontColor=#000000;fillColor=#ffffc0;strokeColor=#ff0000;" vertex="1" parent="1">
          <mxGeometry x="280" y="553" width="120" height="40" as="geometry" />
        </mxCell>
        <mxCell id="yRoRjuL11nitNJYhxqnK-22" value="" style="edgeStyle=orthogonalEdgeStyle;html=1;verticalAlign=bottom;endArrow=open;endSize=8;strokeColor=#ff0000;rounded=0;entryX=0.21;entryY=0.256;entryDx=0;entryDy=0;entryPerimeter=0;" edge="1" source="yRoRjuL11nitNJYhxqnK-21" parent="1" target="yRoRjuL11nitNJYhxqnK-23">
          <mxGeometry relative="1" as="geometry">
            <mxPoint x="349" y="670" as="targetPoint" />
          </mxGeometry>
        </mxCell>
        <mxCell id="yRoRjuL11nitNJYhxqnK-26" style="edgeStyle=orthogonalEdgeStyle;html=1;verticalAlign=bottom;endArrow=open;endSize=8;strokeColor=#ff0000;rounded=0;exitX=0;exitY=0.5;exitDx=0;exitDy=0;exitPerimeter=0;entryX=0.5;entryY=0;entryDx=0;entryDy=0;" edge="1" parent="1" source="yRoRjuL11nitNJYhxqnK-23">
          <mxGeometry relative="1" as="geometry">
            <mxPoint x="190" y="701" as="targetPoint" />
            <Array as="points">
              <mxPoint x="190" y="655" />
            </Array>
          </mxGeometry>
        </mxCell>
        <mxCell id="yRoRjuL11nitNJYhxqnK-23" value="" style="shape=line;html=1;strokeWidth=6;strokeColor=#ff0000;" vertex="1" parent="1">
          <mxGeometry x="190" y="650" width="710" height="10" as="geometry" />
        </mxCell>
        <mxCell id="yRoRjuL11nitNJYhxqnK-24" value="Filtrar Productos" style="rounded=1;whiteSpace=wrap;html=1;arcSize=40;fontColor=#000000;fillColor=#ffffc0;strokeColor=#ff0000;" vertex="1" parent="1">
          <mxGeometry x="120" y="701" width="120" height="40" as="geometry" />
        </mxCell>
        <mxCell id="yRoRjuL11nitNJYhxqnK-25" value="" style="edgeStyle=orthogonalEdgeStyle;html=1;verticalAlign=bottom;endArrow=open;endSize=8;strokeColor=#ff0000;rounded=0;entryX=0;entryY=0.5;entryDx=0;entryDy=0;" edge="1" parent="1">
          <mxGeometry relative="1" as="geometry">
            <mxPoint x="280" y="763" as="targetPoint" />
            <mxPoint x="190" y="742" as="sourcePoint" />
            <Array as="points">
              <mxPoint x="190" y="763" />
            </Array>
          </mxGeometry>
        </mxCell>
        <mxCell id="yRoRjuL11nitNJYhxqnK-27" value="Ver datos &lt;br&gt;del producto" style="rounded=1;whiteSpace=wrap;html=1;arcSize=40;fontColor=#000000;fillColor=#ffffc0;strokeColor=#ff0000;" vertex="1" parent="1">
          <mxGeometry x="280" y="742" width="120" height="40" as="geometry" />
        </mxCell>
        <mxCell id="yRoRjuL11nitNJYhxqnK-28" value="" style="edgeStyle=orthogonalEdgeStyle;html=1;verticalAlign=bottom;endArrow=open;endSize=8;strokeColor=#ff0000;rounded=0;entryX=0.5;entryY=0;entryDx=0;entryDy=0;" edge="1" source="yRoRjuL11nitNJYhxqnK-27" parent="1" target="yRoRjuL11nitNJYhxqnK-30">
          <mxGeometry relative="1" as="geometry">
            <mxPoint x="340" y="810" as="targetPoint" />
          </mxGeometry>
        </mxCell>
        <mxCell id="yRoRjuL11nitNJYhxqnK-29" style="edgeStyle=orthogonalEdgeStyle;html=1;verticalAlign=bottom;endArrow=open;endSize=8;strokeColor=#ff0000;rounded=0;entryX=0.5;entryY=0;entryDx=0;entryDy=0;" edge="1" parent="1" source="yRoRjuL11nitNJYhxqnK-23" target="yRoRjuL11nitNJYhxqnK-27">
          <mxGeometry relative="1" as="geometry">
            <mxPoint x="200" y="665" as="sourcePoint" />
            <mxPoint x="200" y="711" as="targetPoint" />
            <Array as="points">
              <mxPoint x="340" y="680" />
              <mxPoint x="340" y="680" />
            </Array>
          </mxGeometry>
        </mxCell>
        <mxCell id="yRoRjuL11nitNJYhxqnK-30" value="A침adir producto&lt;br&gt;a la cesta" style="rounded=1;whiteSpace=wrap;html=1;arcSize=40;fontColor=#000000;fillColor=#ffffc0;strokeColor=#ff0000;" vertex="1" parent="1">
          <mxGeometry x="280" y="816" width="120" height="40" as="geometry" />
        </mxCell>
        <mxCell id="yRoRjuL11nitNJYhxqnK-32" value="Gestionar cesta" style="rounded=1;whiteSpace=wrap;html=1;arcSize=40;fontColor=#000000;fillColor=#ffffc0;strokeColor=#ff0000;" vertex="1" parent="1">
          <mxGeometry x="430" y="741" width="120" height="40" as="geometry" />
        </mxCell>
        <mxCell id="yRoRjuL11nitNJYhxqnK-33" value="" style="edgeStyle=orthogonalEdgeStyle;html=1;verticalAlign=bottom;endArrow=open;endSize=8;strokeColor=#ff0000;rounded=0;entryX=0.5;entryY=0;entryDx=0;entryDy=0;" edge="1" source="yRoRjuL11nitNJYhxqnK-32" parent="1" target="yRoRjuL11nitNJYhxqnK-39">
          <mxGeometry relative="1" as="geometry">
            <mxPoint x="474" y="842" as="targetPoint" />
          </mxGeometry>
        </mxCell>
        <mxCell id="yRoRjuL11nitNJYhxqnK-38" style="edgeStyle=orthogonalEdgeStyle;html=1;verticalAlign=bottom;endArrow=open;endSize=8;strokeColor=#ff0000;rounded=0;entryX=0.5;entryY=0;entryDx=0;entryDy=0;exitX=1;exitY=0.5;exitDx=0;exitDy=0;exitPerimeter=0;" edge="1" parent="1" source="yRoRjuL11nitNJYhxqnK-23" target="yRoRjuL11nitNJYhxqnK-32">
          <mxGeometry relative="1" as="geometry">
            <mxPoint x="350" y="670" as="sourcePoint" />
            <mxPoint x="350" y="752" as="targetPoint" />
            <Array as="points">
              <mxPoint x="490" y="680" />
              <mxPoint x="490" y="680" />
            </Array>
          </mxGeometry>
        </mxCell>
        <mxCell id="yRoRjuL11nitNJYhxqnK-39" value="Realizar pedido" style="rounded=1;whiteSpace=wrap;html=1;arcSize=40;fontColor=#000000;fillColor=#ffffc0;strokeColor=#ff0000;" vertex="1" parent="1">
          <mxGeometry x="430" y="870" width="120" height="40" as="geometry" />
        </mxCell>
        <mxCell id="yRoRjuL11nitNJYhxqnK-41" value="" style="ellipse;html=1;shape=endState;fillColor=#000000;strokeColor=#ff0000;" vertex="1" parent="1">
          <mxGeometry x="635" y="1199" width="30" height="30" as="geometry" />
        </mxCell>
        <mxCell id="yRoRjuL11nitNJYhxqnK-45" value="Existe la cuenta?" style="rhombus;whiteSpace=wrap;html=1;fontColor=#000000;fillColor=#ffffc0;strokeColor=#ff0000;" vertex="1" parent="1">
          <mxGeometry x="529" y="103" width="81" height="63" as="geometry" />
        </mxCell>
        <mxCell id="yRoRjuL11nitNJYhxqnK-46" value="no" style="edgeStyle=orthogonalEdgeStyle;html=1;align=left;verticalAlign=bottom;endArrow=open;endSize=8;strokeColor=#ff0000;rounded=0;entryX=1;entryY=0.5;entryDx=0;entryDy=0;" edge="1" source="yRoRjuL11nitNJYhxqnK-45" parent="1" target="yRoRjuL11nitNJYhxqnK-3">
          <mxGeometry x="-0.461" y="-4" relative="1" as="geometry">
            <mxPoint x="460" y="250" as="targetPoint" />
            <mxPoint as="offset" />
          </mxGeometry>
        </mxCell>
        <mxCell id="yRoRjuL11nitNJYhxqnK-47" value="yes" style="edgeStyle=orthogonalEdgeStyle;html=1;align=left;verticalAlign=top;endArrow=open;endSize=8;strokeColor=#ff0000;rounded=0;entryX=1;entryY=0.5;entryDx=0;entryDy=0;exitX=1;exitY=0.5;exitDx=0;exitDy=0;" edge="1" source="yRoRjuL11nitNJYhxqnK-45" parent="1" target="yRoRjuL11nitNJYhxqnK-12">
          <mxGeometry x="-0.9791" y="23" relative="1" as="geometry">
            <mxPoint x="320" y="330" as="targetPoint" />
            <mxPoint x="620" y="133" as="sourcePoint" />
            <Array as="points">
              <mxPoint x="610" y="133" />
              <mxPoint x="640" y="133" />
              <mxPoint x="640" y="235" />
            </Array>
            <mxPoint x="23" y="-23" as="offset" />
          </mxGeometry>
        </mxCell>
        <mxCell id="yRoRjuL11nitNJYhxqnK-49" value="Cliente" style="shape=umlFrame;whiteSpace=wrap;html=1;pointerEvents=0;" vertex="1" parent="1">
          <mxGeometry x="110" width="550" height="1240" as="geometry" />
        </mxCell>
        <mxCell id="yRoRjuL11nitNJYhxqnK-51" value="Salir de la aplicaci칩n" style="rounded=1;whiteSpace=wrap;html=1;arcSize=40;fontColor=#000000;fillColor=#ffffc0;strokeColor=#ff0000;" vertex="1" parent="1">
          <mxGeometry x="450" y="1120" width="400" height="40" as="geometry" />
        </mxCell>
        <mxCell id="yRoRjuL11nitNJYhxqnK-52" value="" style="edgeStyle=orthogonalEdgeStyle;html=1;verticalAlign=bottom;endArrow=open;endSize=8;strokeColor=#ff0000;rounded=0;entryX=0.5;entryY=0;entryDx=0;entryDy=0;" edge="1" parent="1" target="yRoRjuL11nitNJYhxqnK-41">
          <mxGeometry relative="1" as="geometry">
            <mxPoint x="740" y="921" as="targetPoint" />
            <mxPoint x="650" y="1169" as="sourcePoint" />
            <Array as="points">
              <mxPoint x="650" y="1159" />
              <mxPoint x="650" y="1159" />
            </Array>
          </mxGeometry>
        </mxCell>
        <mxCell id="yRoRjuL11nitNJYhxqnK-54" style="edgeStyle=orthogonalEdgeStyle;html=1;verticalAlign=bottom;endArrow=open;endSize=8;strokeColor=#ff0000;rounded=0;entryX=0.5;entryY=0;entryDx=0;entryDy=0;exitX=0.585;exitY=0.734;exitDx=0;exitDy=0;exitPerimeter=0;" edge="1" parent="1" source="yRoRjuL11nitNJYhxqnK-23" target="yRoRjuL11nitNJYhxqnK-51">
          <mxGeometry relative="1" as="geometry">
            <mxPoint x="1010" y="665" as="sourcePoint" />
            <mxPoint x="500" y="751" as="targetPoint" />
            <Array as="points">
              <mxPoint x="650" y="657" />
            </Array>
          </mxGeometry>
        </mxCell>
        <mxCell id="yRoRjuL11nitNJYhxqnK-61" value="Acceso a administrador" style="rounded=1;whiteSpace=wrap;html=1;arcSize=40;fontColor=#000000;fillColor=#ffffc0;strokeColor=#ff0000;" vertex="1" parent="1">
          <mxGeometry x="780" y="730" width="120" height="40" as="geometry" />
        </mxCell>
        <mxCell id="yRoRjuL11nitNJYhxqnK-62" value="" style="edgeStyle=orthogonalEdgeStyle;html=1;verticalAlign=bottom;endArrow=open;endSize=8;strokeColor=#ff0000;rounded=0;entryX=0.5;entryY=0;entryDx=0;entryDy=0;" edge="1" source="yRoRjuL11nitNJYhxqnK-61" parent="1" target="yRoRjuL11nitNJYhxqnK-71">
          <mxGeometry relative="1" as="geometry">
            <mxPoint x="840" y="820" as="targetPoint" />
          </mxGeometry>
        </mxCell>
        <mxCell id="yRoRjuL11nitNJYhxqnK-63" value="Reabastecer Stock" style="rounded=1;whiteSpace=wrap;html=1;arcSize=40;fontColor=#000000;fillColor=#ffffc0;strokeColor=#ff0000;" vertex="1" parent="1">
          <mxGeometry x="720" y="1057.5" width="120" height="40" as="geometry" />
        </mxCell>
        <mxCell id="yRoRjuL11nitNJYhxqnK-69" value="" style="edgeStyle=orthogonalEdgeStyle;rounded=0;orthogonalLoop=1;jettySize=auto;html=1;" edge="1" parent="1" source="yRoRjuL11nitNJYhxqnK-64" target="yRoRjuL11nitNJYhxqnK-63">
          <mxGeometry relative="1" as="geometry" />
        </mxCell>
        <mxCell id="yRoRjuL11nitNJYhxqnK-64" value="Agregar Usuario" style="rounded=1;whiteSpace=wrap;html=1;arcSize=40;fontColor=#000000;fillColor=#ffffc0;strokeColor=#ff0000;" vertex="1" parent="1">
          <mxGeometry x="850" y="1056.5" width="120" height="40" as="geometry" />
        </mxCell>
        <mxCell id="yRoRjuL11nitNJYhxqnK-65" value="Admin" style="shape=umlFrame;whiteSpace=wrap;html=1;pointerEvents=0;" vertex="1" parent="1">
          <mxGeometry x="660" width="550" height="1240" as="geometry" />
        </mxCell>
        <mxCell id="yRoRjuL11nitNJYhxqnK-66" value="" style="shape=line;html=1;strokeWidth=6;strokeColor=#ff0000;" vertex="1" parent="1">
          <mxGeometry x="740" y="980" width="200" height="10" as="geometry" />
        </mxCell>
        <mxCell id="yRoRjuL11nitNJYhxqnK-67" value="" style="edgeStyle=orthogonalEdgeStyle;html=1;verticalAlign=bottom;endArrow=open;endSize=8;strokeColor=#ff0000;rounded=0;entryX=0.5;entryY=0;entryDx=0;entryDy=0;" edge="1" source="yRoRjuL11nitNJYhxqnK-66" parent="1" target="yRoRjuL11nitNJYhxqnK-64">
          <mxGeometry relative="1" as="geometry">
            <mxPoint x="840" y="1080" as="targetPoint" />
            <Array as="points">
              <mxPoint x="910" y="1020" />
              <mxPoint x="910" y="1020" />
            </Array>
          </mxGeometry>
        </mxCell>
        <mxCell id="yRoRjuL11nitNJYhxqnK-68" value="" style="edgeStyle=orthogonalEdgeStyle;html=1;verticalAlign=bottom;endArrow=open;endSize=8;strokeColor=#ff0000;rounded=0;exitX=0.913;exitY=0.403;exitDx=0;exitDy=0;exitPerimeter=0;" edge="1" parent="1" source="yRoRjuL11nitNJYhxqnK-23">
          <mxGeometry relative="1" as="geometry">
            <mxPoint x="838" y="730" as="targetPoint" />
            <mxPoint x="850" y="780" as="sourcePoint" />
          </mxGeometry>
        </mxCell>
        <mxCell id="yRoRjuL11nitNJYhxqnK-70" value="" style="edgeStyle=orthogonalEdgeStyle;html=1;verticalAlign=bottom;endArrow=open;endSize=8;strokeColor=#ff0000;rounded=0;entryX=0.464;entryY=0.05;entryDx=0;entryDy=0;exitX=0.184;exitY=0.666;exitDx=0;exitDy=0;exitPerimeter=0;entryPerimeter=0;" edge="1" parent="1" source="yRoRjuL11nitNJYhxqnK-66" target="yRoRjuL11nitNJYhxqnK-63">
          <mxGeometry relative="1" as="geometry">
            <mxPoint x="920" y="1067" as="targetPoint" />
            <mxPoint x="920" y="1000" as="sourcePoint" />
            <Array as="points">
              <mxPoint x="776" y="987" />
            </Array>
          </mxGeometry>
        </mxCell>
        <mxCell id="yRoRjuL11nitNJYhxqnK-71" value="Es admin?" style="rhombus;whiteSpace=wrap;html=1;fontColor=#000000;fillColor=#ffffc0;strokeColor=#ff0000;" vertex="1" parent="1">
          <mxGeometry x="800" y="810" width="80" height="49" as="geometry" />
        </mxCell>
        <mxCell id="yRoRjuL11nitNJYhxqnK-72" value="no" style="edgeStyle=orthogonalEdgeStyle;html=1;align=left;verticalAlign=bottom;endArrow=open;endSize=8;strokeColor=#ff0000;rounded=0;entryX=1;entryY=0.5;entryDx=0;entryDy=0;" edge="1" source="yRoRjuL11nitNJYhxqnK-71" parent="1" target="yRoRjuL11nitNJYhxqnK-21">
          <mxGeometry x="-1" relative="1" as="geometry">
            <mxPoint x="980" y="840" as="targetPoint" />
            <Array as="points">
              <mxPoint x="990" y="835" />
              <mxPoint x="990" y="573" />
            </Array>
          </mxGeometry>
        </mxCell>
        <mxCell id="yRoRjuL11nitNJYhxqnK-73" value="yes" style="edgeStyle=orthogonalEdgeStyle;html=1;align=left;verticalAlign=top;endArrow=open;endSize=8;strokeColor=#ff0000;rounded=0;entryX=0.5;entryY=0;entryDx=0;entryDy=0;" edge="1" source="yRoRjuL11nitNJYhxqnK-71" parent="1" target="yRoRjuL11nitNJYhxqnK-74">
          <mxGeometry x="-1" relative="1" as="geometry">
            <mxPoint x="840" y="900" as="targetPoint" />
          </mxGeometry>
        </mxCell>
        <mxCell id="yRoRjuL11nitNJYhxqnK-74" value="contrase침a correcta?" style="rhombus;whiteSpace=wrap;html=1;fontColor=#000000;fillColor=#ffffc0;strokeColor=#ff0000;" vertex="1" parent="1">
          <mxGeometry x="800" y="900" width="80" height="60" as="geometry" />
        </mxCell>
        <mxCell id="yRoRjuL11nitNJYhxqnK-75" value="no" style="edgeStyle=orthogonalEdgeStyle;html=1;align=left;verticalAlign=bottom;endArrow=open;endSize=8;strokeColor=#ff0000;rounded=0;entryX=0;entryY=0.5;entryDx=0;entryDy=0;" edge="1" source="yRoRjuL11nitNJYhxqnK-74" parent="1" target="yRoRjuL11nitNJYhxqnK-61">
          <mxGeometry x="-0.8182" relative="1" as="geometry">
            <mxPoint x="980" y="930" as="targetPoint" />
            <Array as="points">
              <mxPoint x="770" y="930" />
              <mxPoint x="770" y="750" />
            </Array>
            <mxPoint as="offset" />
          </mxGeometry>
        </mxCell>
        <mxCell id="yRoRjuL11nitNJYhxqnK-76" value="yes" style="edgeStyle=orthogonalEdgeStyle;html=1;align=left;verticalAlign=top;endArrow=open;endSize=8;strokeColor=#ff0000;rounded=0;" edge="1" source="yRoRjuL11nitNJYhxqnK-74" parent="1">
          <mxGeometry x="-1" y="14" relative="1" as="geometry">
            <mxPoint x="840" y="985" as="targetPoint" />
            <mxPoint x="-4" y="-10" as="offset" />
          </mxGeometry>
        </mxCell>
      </root>
    </mxGraphModel>
  </diagram>
</mxfile>
